{"accessors" : [{"bufferView" : 0, "byteOffset" : 0, "componentType" : 5123, "count" : 13044, "type" : "SCALAR", "max" : [13043], "min" : [0]}, {"bufferView" : 1, "byteOffset" : 0, "componentType" : 5126, "count" : 13044, "type" : "VEC3", "max" : [1.0633560419082642, 1.0633560419082642, 7.560247898101807], "min" : [-1.0633549690246582, -1.0633560419082642, 0.00717764999717474], "name" : "POSITION"}, {"bufferView" : 1, "byteOffset" : 12, "componentType" : 5126, "count" : 13044, "type" : "VEC3", "max" : [1.0000044107437134, 0.9998599886894226, 1.0000044107437134], "min" : [-1.0000044107437134, -0.9998598098754883, -1.0000044107437134], "name" : "NORMAL"}, {"bufferView" : 1, "byteOffset" : 24, "componentType" : 5126, "count" : 13044, "type" : "VEC2", "max" : [0.8336051106452942, -0.00010440799815114588], "min" : [0.004492640029639006, -0.9977729916572571], "name" : "TEXCOORD_0"}], "asset" : {"generator" : "Aspose.3D 23.9.0", "version" : "2.0"}, "buffers" : [{"uri" : "data:application/octet-stream;base64,", "byteLength" : 443504}], "bufferViews" : [{"buffer" : 0, "byteOffset" : 0, "byteLength" : 26088, "target" : 34963}, {"buffer" : 0, "byteOffset" : 26092, "byteLength" : 417408, "byteStride" : 32, "target" : 34962}], "images" : [{"uri" : "Beer_Bottle_TEX.png"}], "materials" : [{"name" : "Material", "pbrMetallicRoughness" : {"baseColorFactor" : [0.8, 0.8, 0.8, 1], "baseColorTexture" : {"index" : 0, "texCoord" : 0}, "metallicFactor" : 0, "roughnessFactor" : 0}, "emissiveFactor" : [0, 0, 0], "alphaMode" : "OPAQUE", "doubleSided" : false}], "meshes" : [{"primitives" : [{"attributes" : {"POSITION" : 1, "NORMAL" : 2, "TEXCOORD_0" : 3}, "indices" : 0, "material" : 0, "mode" : 4}], "name" : ""}], "nodes" : [{"matrix" : [0.6063498, 0, 0, 0, 0, 0.6063498, 0, 0, 0, 0, 0.6063498, 0, 0, 0, 0, 1], "mesh" : 0, "name" : "Cylinder"}], "samplers" : [{"magFilter" : 9729, "minFilter" : 9987, "wrapS" : 10497, "wrapT" : 10497}], "scene" : 0, "scenes" : [{"nodes" : [0]}], "textures" : [{"sampler" : 0, "source" : 0, "name" : "Beer_Bottle_TEX_png"}]}